<svg width="15" height="15" viewBox="0 0 15 15" fill="none" xmlns="http://www.w3.org/2000/svg">
<g id="bi:book" clip-path="url(#clip0_1_1995)">
<path id="Vector" d="M1.62491 2.74028C2.41454 2.41015 3.5468 2.05415 4.64782 1.94351C5.8345 1.82395 6.84095 1.99972 7.42448 2.61448V11.3103C6.59023 10.8374 5.53292 10.7722 4.5577 10.8704C3.50486 10.9775 2.44309 11.2817 1.62491 11.594V2.74028ZM8.31672 2.61448C8.90024 1.99972 9.90669 1.82395 11.0934 1.94351C12.1944 2.05415 13.3267 2.41015 14.1163 2.74028V11.594C13.2972 11.2817 12.2363 10.9766 11.1835 10.8713C10.2074 10.7722 9.15096 10.8365 8.31672 11.3103V2.61448ZM7.8706 1.80789C6.99174 1.05216 5.71762 0.93974 4.5577 1.05573C3.20685 1.19224 1.84351 1.65532 0.994093 2.04166C0.916155 2.0771 0.850063 2.13423 0.803707 2.20622C0.757351 2.2782 0.73269 2.36201 0.732666 2.44763V12.2623C0.732687 12.3369 0.751436 12.4104 0.787197 12.4759C0.822958 12.5414 0.874587 12.5969 0.937356 12.6373C1.00012 12.6777 1.07203 12.7017 1.14647 12.7071C1.22092 12.7125 1.29553 12.6992 1.36348 12.6683C2.15044 12.3114 3.41831 11.8822 4.64693 11.7582C5.9041 11.6315 6.95783 11.8358 7.52262 12.5407C7.56442 12.5928 7.61739 12.6348 7.67762 12.6637C7.73785 12.6926 7.8038 12.7076 7.8706 12.7076C7.9374 12.7076 8.00334 12.6926 8.06357 12.6637C8.1238 12.6348 8.17677 12.5928 8.21857 12.5407C8.78336 11.8358 9.8371 11.6315 11.0934 11.7582C12.3229 11.8822 13.5916 12.3114 14.3777 12.6683C14.4457 12.6992 14.5203 12.7125 14.5947 12.7071C14.6692 12.7017 14.7411 12.6777 14.8038 12.6373C14.8666 12.5969 14.9182 12.5414 14.954 12.4759C14.9898 12.4104 15.0085 12.3369 15.0085 12.2623V2.44763C15.0085 2.36201 14.9838 2.2782 14.9375 2.20622C14.8911 2.13423 14.825 2.0771 14.7471 2.04166C13.8977 1.65532 12.5343 1.19224 11.1835 1.05573C10.0236 0.938847 8.74945 1.05216 7.8706 1.80789Z" fill="#09B451"/>
</g>
<defs>
<clipPath id="clip0_1_1995">
<rect width="14.2759" height="14.2759" fill="white" transform="translate(0.732666 0.217041)"/>
</clipPath>
</defs>
</svg>
