<svg width="15" height="16" viewBox="0 0 15 16" fill="none" xmlns="http://www.w3.org/2000/svg">
<g id="ci:group">
<path id="Vector" d="M6.08616 2.58789C5.29737 2.58789 4.54088 2.90124 3.98312 3.459C3.42536 4.01675 3.11202 4.77324 3.11202 5.56203C3.11202 6.35082 3.42536 7.1073 3.98312 7.66506C4.54088 8.22282 5.29737 8.53617 6.08616 8.53617C6.87495 8.53617 7.63143 8.22282 8.18919 7.66506C8.74695 7.1073 9.06029 6.35082 9.06029 5.56203C9.06029 4.77324 8.74695 4.01675 8.18919 3.459C7.63143 2.90124 6.87495 2.58789 6.08616 2.58789ZM4.30167 5.56203C4.30167 5.08875 4.48968 4.63486 4.82434 4.30021C5.15899 3.96555 5.61288 3.77755 6.08616 3.77755C6.55943 3.77755 7.01332 3.96555 7.34798 4.30021C7.68263 4.63486 7.87064 5.08875 7.87064 5.56203C7.87064 6.0353 7.68263 6.48919 7.34798 6.82385C7.01332 7.1585 6.55943 7.34651 6.08616 7.34651C5.61288 7.34651 5.15899 7.1585 4.82434 6.82385C4.48968 6.48919 4.30167 6.0353 4.30167 5.56203ZM10.7901 5.6917C10.6228 5.60646 10.4377 5.56203 10.2499 5.56203V4.37237C10.6256 4.3724 10.9959 4.46137 11.3306 4.632C11.6652 4.80263 11.9547 5.05008 12.1754 5.35409C12.396 5.6581 12.5416 6.01004 12.6001 6.3811C12.6586 6.75216 12.6284 7.13181 12.512 7.48896C12.3956 7.84612 12.1963 8.17064 11.9304 8.43597C11.6644 8.7013 11.3395 8.89989 10.9821 9.01551C10.6247 9.13112 10.2449 9.16046 9.87401 9.10113C9.50308 9.0418 9.15146 8.89549 8.84794 8.67417L9.54865 7.71293C9.68131 7.80947 9.83251 7.87754 9.99274 7.91284C10.153 7.94814 10.3188 7.94992 10.4797 7.91805C10.6407 7.88619 10.7933 7.82138 10.928 7.72769C11.0627 7.63401 11.1765 7.51347 11.2624 7.37366C11.3483 7.23385 11.4043 7.07779 11.427 6.91528C11.4496 6.75278 11.4384 6.58735 11.394 6.42938C11.3497 6.27142 11.2731 6.12434 11.1692 5.99739C11.0652 5.87044 10.9362 5.76636 10.7901 5.6917ZM12.6281 13.2948C12.6279 12.6641 12.3773 12.0593 11.9314 11.6134C11.4854 11.1674 10.8806 10.9168 10.2499 10.9167V9.72582C11.1964 9.72598 12.1041 10.102 12.7734 10.7713C13.4427 11.4406 13.8188 12.3483 13.8189 13.2948H12.6281ZM10.2499 13.2948H9.06029C9.06029 12.506 8.74695 11.7495 8.18919 11.1918C7.63143 10.634 6.87495 10.3206 6.08616 10.3206C5.29737 10.3206 4.54088 10.634 3.98312 11.1918C3.42536 11.7495 3.11202 12.506 3.11202 13.2948H1.92236C1.92236 12.1905 2.36105 11.1314 3.14191 10.3505C3.92277 9.56968 4.98185 9.13099 6.08616 9.13099C7.19046 9.13099 8.24954 9.56968 9.0304 10.3505C9.81127 11.1314 10.2499 12.1905 10.2499 13.2948Z" fill="#09B451"/>
</g>
</svg>
