<svg width="15" height="15" viewBox="0 0 15 15" fill="none" xmlns="http://www.w3.org/2000/svg">
<g id="ant-design:field-time-outlined">
<path id="Vector" d="M13.9071 5.73676H10.3381C10.2768 5.73676 10.2266 5.78695 10.2266 5.84829V6.51747C10.2266 6.57881 10.2768 6.629 10.3381 6.629H13.9071C13.9684 6.629 14.0186 6.57881 14.0186 6.51747V5.84829C14.0186 5.78695 13.9684 5.73676 13.9071 5.73676ZM12.039 7.63277H10.3381C10.2768 7.63277 10.2266 7.68296 10.2266 7.7443V8.41348C10.2266 8.47482 10.2768 8.52501 10.3381 8.52501H12.039C12.1003 8.52501 12.1505 8.47482 12.1505 8.41348V7.7443C12.1505 7.68296 12.1003 7.63277 12.039 7.63277ZM7.38675 4.48901H6.7831C6.69666 4.48901 6.62695 4.55872 6.62695 4.64516V8.10259C6.62695 8.15278 6.65065 8.19879 6.69108 8.22806L8.76694 9.74208C8.83664 9.79227 8.93423 9.77833 8.98442 9.70863L9.34271 9.21929V9.21789C9.3929 9.14819 9.37757 9.0506 9.30786 9.00041L7.5415 7.72339V4.64516C7.54289 4.55872 7.47179 4.48901 7.38675 4.48901Z" fill="#09B451"/>
<path id="Vector_2" d="M11.9525 9.38807H11.1467C11.0686 9.38807 10.9947 9.4285 10.9529 9.49542C10.7759 9.77564 10.5695 10.0349 10.3325 10.2719C9.92405 10.6804 9.44865 11.0011 8.92027 11.2241C8.37238 11.4556 7.79103 11.5727 7.19156 11.5727C6.59069 11.5727 6.00934 11.4556 5.46284 11.2241C4.93446 11.0011 4.45907 10.6804 4.05059 10.2719C3.64211 9.86347 3.32146 9.38807 3.0984 8.85969C2.86697 8.3132 2.74987 7.73185 2.74987 7.13098C2.74987 6.53011 2.86697 5.95015 3.0984 5.40226C3.32146 4.87388 3.64211 4.39849 4.05059 3.99001C4.45907 3.58153 4.93446 3.26088 5.46284 3.03782C6.00934 2.80639 6.59208 2.68929 7.19156 2.68929C7.79243 2.68929 8.37378 2.80639 8.92027 3.03782C9.44865 3.26088 9.92405 3.58153 10.3325 3.99001C10.5695 4.22701 10.7759 4.48632 10.9529 4.76654C10.9947 4.83346 11.0686 4.87388 11.1467 4.87388H11.9525C12.0487 4.87388 12.11 4.77351 12.0668 4.68847C11.1578 2.88028 9.31481 1.70503 7.25708 1.68133C4.24437 1.64369 1.74191 4.1099 1.73634 7.11982C1.73076 10.1353 4.17467 12.582 7.19016 12.582C9.27438 12.582 11.1481 11.4026 12.0668 9.57349C12.11 9.48845 12.0473 9.38807 11.9525 9.38807Z" fill="#09B451"/>
</g>
</svg>
