<svg width="15" height="16" viewBox="0 0 15 16" fill="none" xmlns="http://www.w3.org/2000/svg">
<g id="fe:shopping-bag">
<path id="Vector" d="M5.49123 5.65676V3.87227C5.49123 3.55676 5.61657 3.25416 5.83967 3.03106C6.06277 2.80796 6.36537 2.68262 6.68088 2.68262H9.06019C9.37571 2.68262 9.6783 2.80796 9.90141 3.03106C10.1245 3.25416 10.2498 3.55676 10.2498 3.87227V5.65676H12.0343C12.3498 5.65676 12.6524 5.78209 12.8755 6.0052C13.0986 6.2283 13.224 6.53089 13.224 6.84641V12.1999C13.224 12.5154 13.0986 12.818 12.8755 13.0411C12.6524 13.2642 12.3498 13.3895 12.0343 13.3895H3.70675C3.39123 13.3895 3.08864 13.2642 2.86553 13.0411C2.64243 12.818 2.51709 12.5154 2.51709 12.1999V6.84641C2.51709 6.53089 2.64243 6.2283 2.86553 6.0052C3.08864 5.78209 3.39123 5.65676 3.70675 5.65676H5.49123ZM3.70675 6.84641V12.1999H12.0343V6.84641H10.2487V8.63089H9.06019V6.84641H6.68088V8.63089H5.49123V6.84641H3.70675ZM6.68088 5.65676H9.06019V3.87227H6.68088V5.65676Z" fill="#09B451"/>
</g>
</svg>
