<svg width="22" height="22" viewBox="0 0 22 22" fill="none" xmlns="http://www.w3.org/2000/svg">
<g id="ci:group">
<path id="Vector" d="M8.42544 2.79211C7.23877 2.79211 6.10071 3.26352 5.26161 4.10261C4.42251 4.94171 3.95111 6.07978 3.95111 7.26644C3.95111 8.45311 4.42251 9.59117 5.26161 10.4303C6.10071 11.2694 7.23877 11.7408 8.42544 11.7408C9.6121 11.7408 10.7502 11.2694 11.5893 10.4303C12.4284 9.59117 12.8998 8.45311 12.8998 7.26644C12.8998 6.07978 12.4284 4.94171 11.5893 4.10261C10.7502 3.26352 9.6121 2.79211 8.42544 2.79211ZM5.74084 7.26644C5.74084 6.55444 6.02368 5.87161 6.52714 5.36815C7.0306 4.86469 7.71344 4.58185 8.42544 4.58185C9.13743 4.58185 9.82027 4.86469 10.3237 5.36815C10.8272 5.87161 11.11 6.55444 11.11 7.26644C11.11 7.97844 10.8272 8.66128 10.3237 9.16474C9.82027 9.6682 9.13743 9.95104 8.42544 9.95104C7.71344 9.95104 7.0306 9.6682 6.52714 9.16474C6.02368 8.66128 5.74084 7.97844 5.74084 7.26644ZM15.502 7.46152C15.2504 7.33329 14.9719 7.26644 14.6895 7.26644V5.47671C15.2546 5.47675 15.8117 5.61059 16.3152 5.8673C16.8186 6.124 17.2542 6.49626 17.5861 6.95362C17.9181 7.41097 18.137 7.94043 18.225 8.49866C18.3131 9.05689 18.2676 9.62803 18.0925 10.1653C17.9174 10.7027 17.6176 11.1909 17.2175 11.59C16.8175 11.9892 16.3286 12.288 15.7909 12.4619C15.2532 12.6358 14.682 12.68 14.1239 12.5907C13.5659 12.5015 13.0369 12.2813 12.5803 11.9484L13.6344 10.5023C13.834 10.6475 14.0615 10.7499 14.3025 10.803C14.5436 10.8561 14.793 10.8588 15.0352 10.8109C15.2773 10.7629 15.5069 10.6654 15.7095 10.5245C15.9122 10.3836 16.0835 10.2022 16.2127 9.99188C16.3418 9.78155 16.4261 9.54677 16.4602 9.3023C16.4943 9.05782 16.4774 8.80895 16.4107 8.5713C16.3439 8.33366 16.2288 8.11239 16.0724 7.92141C15.916 7.73042 15.7218 7.57385 15.502 7.46152ZM18.2672 18.8997C18.2669 17.9509 17.8899 17.0411 17.219 16.3702C16.5481 15.6993 15.6383 15.3223 14.6895 15.322V13.5305C16.1134 13.5307 17.479 14.0965 18.4858 15.1034C19.4927 16.1102 20.0585 17.4758 20.0587 18.8997H18.2672ZM14.6895 18.8997H12.8998C12.8998 17.713 12.4284 16.575 11.5893 15.7359C10.7502 14.8968 9.6121 14.4254 8.42544 14.4254C7.23877 14.4254 6.10071 14.8968 5.26161 15.7359C4.42251 16.575 3.95111 17.713 3.95111 18.8997H2.16138C2.16138 17.2384 2.82134 15.6451 3.99608 14.4703C5.17082 13.2956 6.7641 12.6356 8.42544 12.6356C10.0868 12.6356 11.6801 13.2956 12.8548 14.4703C14.0295 15.6451 14.6895 17.2384 14.6895 18.8997Z" fill="white"/>
</g>
</svg>
